<?xml version="1.0" encoding="UTF-8"?>
<svg id="Layer_1" xmlns="http://www.w3.org/2000/svg" viewBox="0 0 434.95 183.52">
  <defs>
    <style>
      .cls-1 {
        fill: none;
        stroke: #daa17d;
        stroke-linecap: round;
        stroke-linejoin: round;
        stroke-width: 2.33px;
      }
    </style>
  </defs>
  <g>
    <path class="cls-1" d="M235.67,84.9c4.53-5.5,23.95-18.78,30.03-23.58,6.08-4.8,31.37-14.02,38.86-14.46,7.49-.45,35.88-6.19,35.88-6.19,0,0-1.72-2.98-5.11-8.18-3.39-5.2-1.6-10.7,1.86-10.91,3.46-.21,17.7,15.53,17.7,15.53l4.57-1.04s-7.46-5.53-11.25-13.99c-3.78-8.45-2.1-12.6.41-12.56,2.51.04,14.72,10.89,18.54,13.36,3.42,2.22,7.77,9.81,8.64,11.35.27-.04,1.03,0,2.86.31,4.28.71,5.99,3.5,6.15,6.19.16,2.69-3.17,5.01-3.17,5.01l3.93,10.95,2.73-22.15s-3.78-8.45-6.93-15.98c-3.15-7.53-.17-19.08,3.99-17.21,4.16,1.87,14.75,21.1,16.04,23.34,1.29,2.24,1.06,17.87,1.06,17.87,0,0,10.15-14.1,20.83-19.37,10.68-5.26,10.5,1.5,10.5,1.5l-31.71,40.65-44.03,43.68c-4.01,3.98-9.33,6.36-14.97,6.69l-29.73,1.77c-6.28.37-29.82,3.98-43.8,5.97-2.51.36-2.38,12.25-1.53,24.82,1.1,16.28-11.35,30.3-27.64,31.27h0c-21.51,1.28-37.06-20.21-29.13-40.25,9.32-23.53,19.97-49,24.43-54.41ZM364.46,60.36c-.04.77-.88,4.68-.88,4.68,0,0,4.77-1.47,4.1-4-.66-2.53-1.56-6.75-1.56-6.75l-3.18.19s1.55,5.12,1.51,5.88ZM345.71,69.29l3.36-5.12-.9-5.79-19.4,4.97s8.05,5.59,16.94,5.93Z"/>
    <path class="cls-1" d="M340.44,40.68l6.28,8.3,2.35,15.19-10.08,15.35s-52.52-3.13-73.17,13.61"/>
    <path class="cls-1" d="M353.35,97.18s11.35-32.78,11.11-36.82c-.24-4.04-6.62-20.07-9.58-23.24"/>
    <path class="cls-1" d="M375.94,34.51l5.68,11.23,3.93,10.95,1.15,3.04c.65,1.73.53,3.65-.33,5.28l-11.38,21.62"/>
    <line class="cls-1" x1="402.45" y1="42.58" x2="403.27" y2="56.32"/>
    <polyline class="cls-1" points="359.45 36.07 363.31 40.91 366.13 54.29"/>
  </g>
  <g>
    <path class="cls-1" d="M199.28,87.65c-4.53-5.5-23.95-18.78-30.03-23.58-6.08-4.8-31.37-14.02-38.86-14.46-7.49-.45-35.88-6.19-35.88-6.19,0,0,1.72-2.98,5.11-8.18,3.39-5.2,1.6-10.7-1.86-10.91-3.46-.21-17.7,15.53-17.7,15.53l-4.57-1.04s7.46-5.53,11.25-13.99c3.78-8.45,2.1-12.6-.41-12.56-2.51.04-14.72,10.89-18.54,13.36-3.42,2.22-7.77,9.81-8.64,11.35-.27-.04-1.03,0-2.86.31-4.28.71-5.99,3.5-6.15,6.19-.16,2.69,3.17,5.01,3.17,5.01l-3.93,10.95-2.73-22.15s3.78-8.45,6.93-15.98c3.15-7.53.17-19.08-3.99-17.21-4.16,1.87-14.75,21.1-16.04,23.34-1.29,2.24-1.06,17.87-1.06,17.87,0,0-10.15-14.1-20.83-19.37-10.68-5.26-10.5,1.5-10.5,1.5l31.71,40.65,44.03,43.68c4.01,3.98,9.33,6.36,14.97,6.69l29.73,1.77c6.28.37,29.82,3.98,43.8,5.97,2.51.36,2.38,12.25,1.53,24.82-1.1,16.28,11.35,30.3,27.64,31.27h0c21.51,1.28,37.06-20.21,29.13-40.25-9.32-23.53-19.97-49-24.43-54.41ZM70.49,63.11c.04.77.88,4.68.88,4.68,0,0-4.77-1.47-4.1-4,.66-2.53,1.56-6.75,1.56-6.75l3.18.19s-1.55,5.12-1.51,5.88ZM89.24,72.03l-3.36-5.12.9-5.79,19.4,4.97s-8.05,5.59-16.94,5.93Z"/>
    <path class="cls-1" d="M94.51,43.42l-6.28,8.3-2.35,15.19,10.08,15.35s52.52-3.13,73.17,13.61"/>
    <path class="cls-1" d="M81.6,99.92s-11.35-32.78-11.11-36.82c.24-4.04,6.62-20.07,9.58-23.24"/>
    <path class="cls-1" d="M59.01,37.26l-5.68,11.23-3.93,10.95-1.15,3.04c-.65,1.73-.53,3.65.33,5.28l11.38,21.62"/>
    <line class="cls-1" x1="32.49" y1="45.32" x2="31.68" y2="59.06"/>
    <polyline class="cls-1" points="75.5 38.82 71.64 43.65 68.82 57.03"/>
  </g>
</svg>