<?xml version="1.0" encoding="UTF-8"?>
<svg id="Layer_1" xmlns="http://www.w3.org/2000/svg" viewBox="0 0 559.6 559.6">
  <defs>
    <style>
      .cls-1 {
        fill: none;
        stroke: #d7be8a;
        stroke-linecap: round;
        stroke-linejoin: round;
        stroke-width: 6.32px;
      }
    </style>
  </defs>
  <circle class="cls-1" cx="279.8" cy="279.8" r="109.04" transform="translate(-40.05 46.84) rotate(-8.93)"/>
  <g>
    <g>
      <line class="cls-1" x1="279.8" y1="142.43" x2="279.8" y2="3.16"/>
      <line class="cls-1" x1="279.8" y1="556.44" x2="279.8" y2="417.18"/>
      <line class="cls-1" x1="142.43" y1="279.8" x2="3.16" y2="279.8"/>
      <line class="cls-1" x1="556.44" y1="279.8" x2="417.18" y2="279.8"/>
    </g>
    <g>
      <line class="cls-1" x1="182.66" y1="182.66" x2="113.12" y2="113.12"/>
      <line class="cls-1" x1="446.49" y1="446.49" x2="376.94" y2="376.94"/>
      <line class="cls-1" x1="182.66" y1="376.94" x2="113.12" y2="446.49"/>
      <line class="cls-1" x1="446.49" y1="113.12" x2="376.94" y2="182.66"/>
    </g>
    <g>
      <line class="cls-1" x1="228.52" y1="152.36" x2="191.8" y2="61.12"/>
      <line class="cls-1" x1="367.8" y1="498.49" x2="331.08" y2="407.24"/>
      <line class="cls-1" x1="152.36" y1="331.08" x2="61.12" y2="367.8"/>
      <line class="cls-1" x1="498.49" y1="191.8" x2="407.24" y2="228.52"/>
    </g>
    <g>
      <line class="cls-1" x1="153.42" y1="225.95" x2="62.94" y2="187.39"/>
      <line class="cls-1" x1="496.66" y1="372.21" x2="406.18" y2="333.66"/>
      <line class="cls-1" x1="225.95" y1="406.18" x2="187.39" y2="496.66"/>
      <line class="cls-1" x1="372.21" y1="62.94" x2="333.66" y2="153.42"/>
    </g>
    <g>
      <line class="cls-1" x1="167.64" y1="200.49" x2="125.59" y2="170.76"/>
      <line class="cls-1" x1="434.01" y1="388.85" x2="391.97" y2="359.11"/>
      <line class="cls-1" x1="200.49" y1="391.97" x2="170.76" y2="434.01"/>
      <line class="cls-1" x1="388.84" y1="125.59" x2="359.11" y2="167.64"/>
    </g>
    <g>
      <line class="cls-1" x1="145.29" y1="251.9" x2="94.87" y2="241.45"/>
      <line class="cls-1" x1="464.74" y1="318.16" x2="414.31" y2="307.7"/>
      <line class="cls-1" x1="251.9" y1="414.31" x2="241.45" y2="464.74"/>
      <line class="cls-1" x1="318.16" y1="94.87" x2="307.7" y2="145.29"/>
    </g>
    <g>
      <line class="cls-1" x1="144.41" y1="303.03" x2="93.65" y2="311.74"/>
      <line class="cls-1" x1="465.95" y1="247.86" x2="415.2" y2="256.57"/>
      <line class="cls-1" x1="303.03" y1="415.2" x2="311.74" y2="465.95"/>
      <line class="cls-1" x1="247.86" y1="93.65" x2="256.57" y2="144.41"/>
    </g>
    <g>
      <line class="cls-1" x1="204.69" y1="164.78" x2="176.53" y2="121.67"/>
      <line class="cls-1" x1="383.07" y1="437.94" x2="354.92" y2="394.82"/>
      <line class="cls-1" x1="164.78" y1="354.92" x2="121.67" y2="383.07"/>
      <line class="cls-1" x1="437.94" y1="176.53" x2="394.82" y2="204.69"/>
    </g>
  </g>
  <path class="cls-1" d="M209.65,279.8c0-51.77,41.97-93.74,93.74-93.74,20.12,0,38.74,6.36,54.01,17.15-19.77-20.03-47.23-32.45-77.6-32.45-60.22,0-109.04,48.82-109.04,109.04s48.82,109.04,109.04,109.04c30.37,0,57.83-12.42,77.6-32.45-15.27,10.79-33.89,17.15-54.01,17.15-51.77,0-93.74-41.97-93.74-93.74Z"/>
</svg>