<?xml version="1.0" encoding="UTF-8"?>
<svg id="Layer_1" xmlns="http://www.w3.org/2000/svg" viewBox="0 0 247.64 247.64">
  <defs>
    <style>
      .cls-1 {
        fill: none;
        stroke: #7b51a1;
        stroke-linecap: round;
        stroke-linejoin: round;
        stroke-width: 2.8px;
      }
    </style>
  </defs>
  <circle class="cls-1" cx="123.82" cy="123.82" r="48.26" transform="translate(-17.72 20.73) rotate(-8.93)"/>
  <g>
    <g>
      <line class="cls-1" x1="123.82" y1="63.03" x2="123.82" y2="1.4"/>
      <line class="cls-1" x1="123.82" y1="246.24" x2="123.82" y2="184.61"/>
      <line class="cls-1" x1="63.03" y1="123.82" x2="1.4" y2="123.82"/>
      <line class="cls-1" x1="246.24" y1="123.82" x2="184.61" y2="123.82"/>
    </g>
    <g>
      <line class="cls-1" x1="80.83" y1="80.83" x2="50.06" y2="50.06"/>
      <line class="cls-1" x1="197.58" y1="197.58" x2="166.81" y2="166.81"/>
      <line class="cls-1" x1="80.83" y1="166.81" x2="50.06" y2="197.58"/>
      <line class="cls-1" x1="197.58" y1="50.06" x2="166.81" y2="80.83"/>
    </g>
    <g>
      <line class="cls-1" x1="101.13" y1="67.42" x2="84.88" y2="27.05"/>
      <line class="cls-1" x1="162.76" y1="220.6" x2="146.51" y2="180.22"/>
      <line class="cls-1" x1="67.42" y1="146.52" x2="27.05" y2="162.76"/>
      <line class="cls-1" x1="220.6" y1="84.88" x2="180.22" y2="101.13"/>
    </g>
    <g>
      <line class="cls-1" x1="67.89" y1="99.99" x2="27.85" y2="82.93"/>
      <line class="cls-1" x1="219.79" y1="164.72" x2="179.75" y2="147.65"/>
      <line class="cls-1" x1="99.99" y1="179.75" x2="82.93" y2="219.79"/>
      <line class="cls-1" x1="164.72" y1="27.85" x2="147.65" y2="67.9"/>
    </g>
    <g>
      <line class="cls-1" x1="74.18" y1="88.72" x2="55.58" y2="75.57"/>
      <line class="cls-1" x1="192.06" y1="172.08" x2="173.46" y2="158.92"/>
      <line class="cls-1" x1="88.72" y1="173.46" x2="75.57" y2="192.06"/>
      <line class="cls-1" x1="172.08" y1="55.58" x2="158.92" y2="74.18"/>
    </g>
    <g>
      <line class="cls-1" x1="64.3" y1="111.48" x2="41.98" y2="106.85"/>
      <line class="cls-1" x1="205.66" y1="140.79" x2="183.35" y2="136.17"/>
      <line class="cls-1" x1="111.48" y1="183.35" x2="106.85" y2="205.66"/>
      <line class="cls-1" x1="140.79" y1="41.98" x2="136.17" y2="64.3"/>
    </g>
    <g>
      <line class="cls-1" x1="63.9" y1="134.1" x2="41.44" y2="137.95"/>
      <line class="cls-1" x1="206.2" y1="109.69" x2="183.74" y2="113.54"/>
      <line class="cls-1" x1="134.1" y1="183.74" x2="137.95" y2="206.2"/>
      <line class="cls-1" x1="109.69" y1="41.44" x2="113.54" y2="63.9"/>
    </g>
    <g>
      <line class="cls-1" x1="90.58" y1="72.92" x2="78.12" y2="53.84"/>
      <line class="cls-1" x1="169.52" y1="193.8" x2="157.06" y2="174.72"/>
      <line class="cls-1" x1="72.92" y1="157.06" x2="53.84" y2="169.52"/>
      <line class="cls-1" x1="193.8" y1="78.12" x2="174.72" y2="90.58"/>
    </g>
  </g>
  <path class="cls-1" d="M92.78,123.82c0-22.91,18.57-41.48,41.48-41.48,8.9,0,17.14,2.81,23.9,7.59-8.75-8.86-20.9-14.36-34.34-14.36-26.65,0-48.26,21.6-48.26,48.25s21.6,48.26,48.26,48.26c13.44,0,25.59-5.5,34.34-14.36-6.76,4.77-15,7.59-23.9,7.59-22.91,0-41.48-18.57-41.48-41.48Z"/>
</svg>